<?xml version="1.0" encoding="UTF-8" standalone="no"?>
<svg
   xmlns:dc="http://purl.org/dc/elements/1.1/"
   xmlns:cc="http://creativecommons.org/ns#"
   xmlns:rdf="http://www.w3.org/1999/02/22-rdf-syntax-ns#"
   xmlns:svg="http://www.w3.org/2000/svg"
   xmlns="http://www.w3.org/2000/svg"
   xmlns:xlink="http://www.w3.org/1999/xlink"
   id="svg33"
   version="1.1"
   height="800.15619"
   width="2037.0703"
   viewBox="0 0 2037.1 800.16">
  <metadata
     id="metadata2">
    <rdf:RDF>
      <cc:Work
         rdf:about="">
        <dc:format>image/svg+xml</dc:format>
        <dc:type
           rdf:resource="http://purl.org/dc/dcmitype/StillImage" />
        <dc:title></dc:title>
      </cc:Work>
    </rdf:RDF>
  </metadata>
  <defs
     id="defs9">
    <linearGradient
       xlink:href="#SvgjsLinearGradient3675"
       gradientUnits="userSpaceOnUse"
       gradientTransform="scale(1.2967,0.77121)"
       y2="51.132"
       y1="51.132"
       x2="71.214996"
       x1="32.495998"
       id="linearGradient30" />
    <linearGradient
       xlink:href="#SvgjsLinearGradient3675"
       gradientUnits="userSpaceOnUse"
       gradientTransform="scale(1.5536,0.64368)"
       y2="59.474998"
       y1="59.474998"
       x2="19.076"
       x1="10.207"
       id="linearGradient32" />
    <linearGradient
       xlink:href="#SvgjsLinearGradient3675"
       gradientUnits="userSpaceOnUse"
       gradientTransform="scale(1.5704,0.63676)"
       y2="60.120998"
       y1="60.120998"
       x2="58.799999"
       x1="10.097"
       id="linearGradient34" />
    <linearGradient
       xlink:href="#SvgjsLinearGradient3675"
       gradientUnits="userSpaceOnUse"
       gradientTransform="scale(1.1984,0.83444)"
       y2="25.483"
       y1="25.483"
       x2="71.897003"
       x1="4.2673001"
       id="linearGradient36" />
    <linearGradient
       xlink:href="#SvgjsLinearGradient3675"
       gradientUnits="userSpaceOnUse"
       gradientTransform="scale(1.2433,0.80434)"
       y2="26.437"
       y1="26.437"
       x2="74.274002"
       x1="4.1134"
       id="linearGradient40" />
    <linearGradient
       y2="25.483"
       x2="71.897003"
       y1="25.483"
       x1="4.2673001"
       gradientTransform="scale(1.1984,0.83444)"
       gradientUnits="userSpaceOnUse"
       id="linearGradient63"
       xlink:href="#SvgjsLinearGradient3675" />
    <defs
       id="defs16">
      <linearGradient
         id="SvgjsLinearGradient3675">
        <stop
           stop-color="#b88746"
           offset="0"
           id="stop11" />
        <stop
           stop-color="#fdf5a6"
           offset="1"
           id="stop13" />
      </linearGradient>
    </defs>
  </defs>
  <g
     id="main_text"
     transform="matrix(11.540579,0,0,11.540579,0,571.65272)"
     feature="main_text"
     groupName="main_text"
     name="main_text"
     rel="mainfill"
     style="fill:#ffffff">
    <path
       d="M 11.5,4.6 V 6.44 H 6.86 V 19.6 H 4.64 V 6.44 H 0 V 4.6 Z m 4.02,13.16 h 8.14 V 19.6 H 13.3 v -15 h 9.98 v 1.84 h -7.76 v 4.44 h 6.34 v 1.86 H 15.52 Z M 32.18,4.6 l 6.16,15 h -2.4 l -1.5,-3.92 h -5.9 l -1.48,3.92 h -2.4 l 6.16,-15 z m -2.94,9.24 h 4.5 L 31.5,7.92 Z M 50.04,4.6 V 6.44 H 45.4 V 19.6 H 43.18 V 6.44 H 38.54 V 4.6 Z m 11.5,0 V 6.44 H 56.9 V 19.6 H 54.68 V 6.44 H 50.04 V 4.6 Z m 4.02,13.16 H 73.7 V 19.6 H 63.34 v -15 h 9.98 v 1.84 h -7.76 v 4.44 h 6.34 v 1.86 H 65.56 Z M 87.42,9.92 c 0,2.28 -1.32,4.12 -3.22,4.92 l 3.22,4.76 h -2.46 l -2.94,-4.36 h -3.5 V 19.6 H 76.3 v -15 h 5.82 c 2.94,0.02 5.3,2.3 5.3,5.32 z m -8.9,-3.48 v 6.96 h 3.58 c 1.7,0 3.1,-1.44 3.1,-3.48 0,-2.02 -1.4,-3.48 -3.1,-3.48 z M 92.64,4.6 v 15 h -2.22 v -15 z m 9.44,15 h -1.26 l -5.78,-15 h 2.38 l 4.04,11.04 4.02,-11.04 h 2.38 z m 13.5,-15 6.16,15 h -2.4 l -1.5,-3.92 h -5.9 l -1.48,3.92 h -2.4 l 6.16,-15 z m -2.94,9.24 h 4.5 L 114.9,7.92 Z m 22.02,-3.92 c 0,2.28 -1.32,4.12 -3.22,4.92 l 3.22,4.76 h -2.46 l -2.94,-4.36 h -3.5 v 4.36 h -2.22 v -15 h 5.82 c 2.94,0.02 5.3,2.3 5.3,5.32 z m -8.9,-3.48 v 6.96 h 3.58 c 1.7,0 3.1,-1.44 3.1,-3.48 0,-2.02 -1.4,-3.48 -3.1,-3.48 z m 17.62,-1.84 6.16,15 h -2.4 l -1.5,-3.92 h -5.9 l -1.48,3.92 h -2.4 l 6.16,-15 z m -2.94,9.24 h 4.5 L 142.7,7.92 Z M 160.96,4.6 h 2.22 v 9.12 c 0,2.42 -0.96,6.08 -6,6.08 -5.04,0 -6.04,-3.66 -6.04,-6.08 V 4.6 h 2.22 v 9.12 c 0,0.9 0.2,4.24 3.82,4.24 3.62,0 3.78,-3.34 3.78,-4.24 z m 15.32,9.5 c 0.06,0.14 0.54,1.5 -0.08,2.92 -0.72,1.7 -2.74,2.76 -5.26,2.78 -2.18,0 -4.16,-0.96 -5.56,-2.48 l 1.48,-1.48 c 0.7,1.24 2.48,2.12 4.08,2.12 1.74,-0.02 2.76,-0.66 3.18,-1.66 0.32,-0.74 0.06,-1.54 0.04,-1.56 -0.42,-1.16 -1.58,-1.42 -3.22,-1.92 -1.86,-0.56 -4,-1.02 -4.7,-2.98 -0.38,-1.02 -0.28,-2.2 0.24,-3.16 1.16,-2.2 4.12,-2.26 4.46,-2.26 2.2,0 4.16,0.96 5.56,2.5 l -1.46,1.46 c -0.82,-1.2 -2.42,-2.12 -4.1,-2.12 -0.02,0 -1.78,0 -2.46,1.28 -0.26,0.5 -0.32,1.16 -0.14,1.68 0.4,1.1 1.54,1.36 3.14,1.84 1.9,0.58 4.04,1.02 4.8,3.04 z"
       id="path18" />
  </g>
  <g
     transform="matrix(8.1953643,0,0,8.1953643,619.19146,-174.26623)"
     feature="symbol"
     name="symbol"
     rel="mainfill"
     id="g29"
     style="fill:url(#linearGradient40)">
    <polygon
       points="42.136,69.295 43.674,68.661 44.094,68.482 88.713,49.997 84.338,39.434 92.342,39.434 92.342,69.295 "
       id="polygon21"
       style="fill:url(#linearGradient30)" />
    <polygon
       points="29.636,38.283 15.857,43.992 15.857,38.283 "
       id="polygon23"
       style="fill:url(#linearGradient32)" />
    <g
       id="g27"
       style="fill:url(#linearGradient36)">
      <path
         d="M 81.79,38.283 74.737,21.264 19.871,43.992 5.114,50.111 8.851,59.137 c 0.042,-0.023 0.086,-0.05 0.126,-0.063 2.64,-1.092 5.662,0.16 6.752,2.797 1.09,2.641 -0.162,5.662 -2.799,6.755 -0.047,0.015 -0.092,0.026 -0.131,0.045 l 3.737,9.026 23.049,-9.552 1.541,-0.636 0.417,-0.171 44.619,-18.486 z m -48.313,26.264 1.271,-0.537 0.645,1.548 -1.273,0.544 z m 0.63,-2.087 -1.273,0.532 -0.643,-1.552 1.273,-0.539 z m -1.289,-3.109 -1.271,0.54 -0.645,-1.557 1.273,-0.532 z m -1.285,-3.102 -1.273,0.538 -0.645,-1.553 1.273,-0.54 z m -1.287,-3.103 -1.271,0.534 -0.645,-1.552 1.273,-0.533 z m -1.285,-3.107 -1.273,0.542 -0.642,-1.552 1.271,-0.538 z m -1.285,-3.102 -1.268,0.535 -0.65,-1.552 1.271,-0.538 z m -1.931,-4.654 0.645,1.55 -1.273,0.542 -0.638,-1.557 z m 10.934,26.386 -1.273,0.536 -0.457,-1.108 -0.186,-0.45 1.271,-0.532 0.368,0.883 z"
         id="path25"
         style="fill:url(#linearGradient63)" />
    </g>
  </g>
</svg>